<?xml version="1.0" encoding="UTF-8" standalone="no"?>
<!DOCTYPE svg PUBLIC "-//W3C//DTD SVG 1.1//EN" "http://www.w3.org/Graphics/SVG/1.1/DTD/svg11.dtd">
<svg width="100%" height="100%" viewBox="0 0 200 200" version="1.1" xmlns="http://www.w3.org/2000/svg" xmlns:xlink="http://www.w3.org/1999/xlink" xml:space="preserve" xmlns:serif="http://www.serif.com/" style="fill-rule:evenodd;clip-rule:evenodd;stroke-linejoin:round;stroke-miterlimit:2;">
    <g transform="matrix(0.450504,0,0,0.448812,-85.5265,-19.7152)">
        <path d="M560.876,80.989C560.876,74.84 555.903,69.848 549.777,69.848L271.308,69.848C265.182,69.848 260.209,74.84 260.209,80.989L260.209,360.569C260.209,366.717 265.182,371.709 271.308,371.709L549.777,371.709C555.903,371.709 560.876,366.717 560.876,360.569L560.876,80.989ZM357.376,286.839L280.876,286.839L280.876,350.209L357.376,350.209L357.376,286.839ZM451.709,286.839L375.209,286.839L375.209,350.209L451.709,350.209L451.709,286.839ZM544.709,285.955L468.209,285.955L468.209,349.325L544.709,349.325L544.709,285.955ZM543.709,209.29L467.209,209.29L467.209,272.661L543.709,272.661L543.709,209.29ZM358.376,209.29L281.876,209.29L281.876,272.661L358.376,272.661L358.376,209.29ZM451.709,209.29L375.209,209.29L375.209,272.661L451.709,272.661L451.709,209.29ZM543.709,133.043L467.209,133.043L467.209,196.413L543.709,196.413L543.709,133.043ZM358.376,133.043L281.876,133.043L281.876,196.413L358.376,196.413L358.376,133.043ZM451.709,133.043L375.209,133.043L375.209,196.413L451.709,196.413L451.709,133.043Z"/>
    </g>
    <g transform="matrix(0.783912,0,0,0.783912,16.7048,48.3142)">
        <text x="47.006px" y="177.805px" style="font-family:'Calibri', sans-serif;font-size:64px;">OUT</text>
    </g>
</svg>
