<?xml version="1.0" encoding="UTF-8" standalone="no"?>
<!DOCTYPE svg PUBLIC "-//W3C//DTD SVG 1.1//EN" "http://www.w3.org/Graphics/SVG/1.1/DTD/svg11.dtd">
<svg width="100%" height="100%" viewBox="0 0 200 200" version="1.1" xmlns="http://www.w3.org/2000/svg" xmlns:xlink="http://www.w3.org/1999/xlink" xml:space="preserve" style="fill-rule:evenodd;clip-rule:evenodd;stroke-linejoin:round;stroke-miterlimit:2;">
    <g transform="matrix(0.450504,0,0,0.448812,-85.5265,-19.7152)">
        <path d="M560.876,80.989C560.876,74.84 555.903,69.848 549.777,69.848L271.308,69.848C265.182,69.848 260.209,74.84 260.209,80.989L260.209,360.569C260.209,366.717 265.182,371.709 271.308,371.709L549.777,371.709C555.903,371.709 560.876,366.717 560.876,360.569L560.876,80.989ZM357.376,286.839L280.876,286.839L280.876,350.209L357.376,350.209L357.376,286.839ZM451.709,286.839L375.209,286.839L375.209,350.209L451.709,350.209L451.709,286.839ZM544.709,285.955L468.209,285.955L468.209,349.325L544.709,349.325L544.709,285.955ZM543.709,209.29L467.209,209.29L467.209,272.661L543.709,272.661L543.709,209.29ZM358.376,209.29L281.876,209.29L281.876,272.661L358.376,272.661L358.376,209.29ZM451.709,209.29L375.209,209.29L375.209,272.661L451.709,272.661L451.709,209.29ZM543.709,133.043L467.209,133.043L467.209,196.413L543.709,196.413L543.709,133.043ZM358.376,133.043L281.876,133.043L281.876,196.413L358.376,196.413L358.376,133.043ZM451.709,133.043L375.209,133.043L375.209,196.413L451.709,196.413L451.709,133.043Z"/>
    </g>
    <g transform="matrix(0.783912,0,0,0.783912,40.8908,48.3142)">
        <g transform="matrix(64,0,0,64,47.0058,177.805)">
            <path d="M0.168,-0.013C0.168,-0.01 0.167,-0.008 0.166,-0.006C0.165,-0.004 0.162,-0.002 0.159,-0.001C0.156,0 0.152,0.001 0.146,0.002C0.141,0.003 0.134,0.003 0.126,0.003C0.118,0.003 0.111,0.003 0.106,0.002C0.1,0.001 0.096,0 0.093,-0.001C0.09,-0.002 0.087,-0.004 0.086,-0.006C0.085,-0.008 0.084,-0.01 0.084,-0.013L0.084,-0.619C0.084,-0.622 0.085,-0.624 0.086,-0.626C0.088,-0.628 0.09,-0.629 0.094,-0.631C0.097,-0.632 0.101,-0.633 0.107,-0.634C0.112,-0.634 0.118,-0.635 0.126,-0.635C0.134,-0.635 0.141,-0.634 0.146,-0.634C0.152,-0.633 0.156,-0.632 0.159,-0.631C0.162,-0.629 0.165,-0.628 0.166,-0.626C0.167,-0.624 0.168,-0.622 0.168,-0.619L0.168,-0.013Z" style="fill-rule:nonzero;"/>
        </g>
        <g transform="matrix(64,0,0,64,63.1308,177.805)">
            <path d="M0.562,-0.035C0.562,-0.028 0.56,-0.023 0.558,-0.018C0.556,-0.014 0.553,-0.01 0.55,-0.007C0.546,-0.004 0.542,-0.002 0.538,0C0.533,0.001 0.529,0.001 0.525,0.001L0.497,0.001C0.488,0.001 0.48,0.001 0.474,-0.001C0.467,-0.003 0.461,-0.006 0.455,-0.011C0.449,-0.016 0.443,-0.022 0.438,-0.03C0.432,-0.038 0.425,-0.049 0.419,-0.062L0.226,-0.421C0.216,-0.439 0.206,-0.459 0.196,-0.479C0.185,-0.5 0.176,-0.519 0.167,-0.539L0.166,-0.539C0.167,-0.515 0.167,-0.491 0.167,-0.467C0.168,-0.442 0.168,-0.418 0.168,-0.394L0.168,-0.013C0.168,-0.01 0.167,-0.008 0.166,-0.006C0.165,-0.004 0.162,-0.002 0.159,-0.001C0.156,0 0.151,0.001 0.146,0.002C0.141,0.003 0.134,0.003 0.126,0.003C0.117,0.003 0.111,0.003 0.105,0.002C0.1,0.001 0.096,0 0.093,-0.001C0.09,-0.002 0.087,-0.004 0.086,-0.006C0.085,-0.008 0.084,-0.01 0.084,-0.013L0.084,-0.596C0.084,-0.609 0.088,-0.618 0.095,-0.624C0.102,-0.629 0.111,-0.632 0.119,-0.632L0.161,-0.632C0.17,-0.632 0.178,-0.631 0.185,-0.629C0.192,-0.628 0.197,-0.625 0.203,-0.621C0.208,-0.618 0.213,-0.612 0.218,-0.606C0.223,-0.599 0.228,-0.591 0.233,-0.581L0.381,-0.303C0.39,-0.286 0.399,-0.27 0.408,-0.254C0.416,-0.238 0.424,-0.222 0.432,-0.206C0.44,-0.19 0.448,-0.175 0.456,-0.16C0.463,-0.145 0.471,-0.13 0.479,-0.114L0.479,-0.114C0.478,-0.14 0.478,-0.167 0.478,-0.195C0.478,-0.222 0.478,-0.249 0.478,-0.275L0.478,-0.618C0.478,-0.62 0.478,-0.622 0.48,-0.624C0.481,-0.626 0.483,-0.628 0.487,-0.629C0.49,-0.631 0.494,-0.632 0.499,-0.632C0.505,-0.633 0.512,-0.633 0.52,-0.633C0.528,-0.633 0.534,-0.633 0.54,-0.632C0.545,-0.632 0.55,-0.631 0.553,-0.629C0.556,-0.628 0.558,-0.626 0.559,-0.624C0.561,-0.622 0.562,-0.62 0.562,-0.618L0.562,-0.035Z" style="fill-rule:nonzero;"/>
        </g>
    </g>
</svg>
